<?xml version="1.0" encoding="UTF-8"?>
<svg width="472px" height="208px" viewBox="0 0 472 208" version="1.1" xmlns="http://www.w3.org/2000/svg" xmlns:xlink="http://www.w3.org/1999/xlink">
    <title>Group 3</title>
    <defs>
        <path d="M127.111,156.24 L155.234,156.24 L155.234,0 L127.111,0 L127.111,156.24 Z M421.065,20.981 L421.065,50.444 L398.745,50.444 L398.745,74.772 L421.065,74.772 L421.065,116.511 C421.065,145.75 435.35,158.919 463.027,158.919 L463.027,158.919 C465.989,158.919 468.776,158.697 471.485,158.363 L471.485,158.363 L471.485,133.11 C470.601,133.16 469.73,133.251 468.83,133.251 L468.83,133.251 C455.215,133.251 449.188,128.117 449.188,113.386 L449.188,113.386 L449.188,74.772 L471.485,74.772 L471.485,50.444 L449.188,50.444 L449.188,20.981 L421.065,20.981 Z M284.955,103.342 C284.955,135.036 309.061,158.919 342.318,158.919 L342.318,158.919 C375.351,158.919 399.457,135.036 399.457,103.342 L399.457,103.342 C399.457,71.648 375.351,47.765 342.318,47.765 L342.318,47.765 C309.061,47.765 284.955,71.648 284.955,103.342 L284.955,103.342 Z M308.979,97.564 L355.265,97.564 L343.336,82.873 L343.344,82.866 C343.33,82.85 343.315,82.835 343.302,82.819 L343.302,82.819 C341.247,80.289 341.566,76.516 344.015,74.394 L344.015,74.394 C346.464,72.269 350.115,72.6 352.171,75.131 L352.171,75.131 C352.194,75.159 352.213,75.19 352.236,75.22 L352.236,75.22 L375.257,103.57 L352.232,131.916 C352.211,131.944 352.193,131.974 352.171,132.001 L352.171,132.001 C350.115,134.531 346.464,134.861 344.015,132.738 L344.015,132.738 C341.566,130.615 341.247,126.842 343.302,124.311 L343.302,124.311 C343.315,124.295 343.33,124.281 343.343,124.265 L343.343,124.265 L343.336,124.259 L355.296,109.529 L308.979,109.529 L308.979,97.564 Z M163.826,102.672 C163.826,133.92 186.146,156.464 214.939,156.464 L214.939,156.464 C229.893,156.464 242.839,150.437 248.865,139.277 L248.865,139.277 L249.758,139.277 L249.758,154.008 C249.758,173.204 239.714,183.694 219.849,183.694 L219.849,183.694 C204.449,183.694 194.851,177.444 193.512,166.061 L193.512,166.061 L165.835,166.061 C167.62,191.283 187.932,207.13 219.626,207.13 L219.626,207.13 C255.338,207.13 276.765,187.265 276.765,154.008 L276.765,154.008 L276.765,50.444 L250.874,50.444 L249.535,64.952 L248.642,64.952 C242.616,53.792 229.67,47.765 215.162,47.765 L215.162,47.765 C186.146,47.765 163.826,71.648 163.826,102.672 L163.826,102.672 Z M192.619,102.672 C192.619,85.932 204.002,73.21 221.189,73.21 L221.189,73.21 C238.598,73.21 249.758,85.932 249.758,102.672 L249.758,102.672 C249.758,119.636 238.598,132.135 221.189,132.135 L221.189,132.135 C204.002,132.135 192.619,119.636 192.619,102.672 L192.619,102.672 Z M0,103.342 C0,135.26 22.097,158.919 51.336,158.919 L51.336,158.919 C65.844,158.919 78.79,152.892 84.816,141.732 L84.816,141.732 L85.709,141.732 L87.048,156.24 L112.939,156.24 L112.939,50.444 L87.048,50.444 L85.709,64.952 L84.816,64.952 C78.79,53.792 65.844,47.765 51.336,47.765 L51.336,47.765 C22.097,47.765 0,71.424 0,103.342 L0,103.342 Z M28.793,103.342 C28.793,86.156 39.953,73.21 57.362,73.21 L57.362,73.21 C74.772,73.21 85.932,86.156 85.932,103.342 L85.932,103.342 C85.932,120.528 74.772,133.251 57.362,133.251 L57.362,133.251 C39.953,133.251 28.793,120.528 28.793,103.342 L28.793,103.342 Z" id="path-1"></path>
        <linearGradient x1="-1.19409949e-05%" y1="100.000029%" x2="99.5490548%" y2="100.000029%" id="linearGradient-3">
            <stop stop-color="#04F912" offset="0%"></stop>
            <stop stop-color="#008CFF" offset="100%"></stop>
        </linearGradient>
    </defs>
    <g id="Page-1" stroke="none" stroke-width="1" fill="none" fill-rule="evenodd">
        <g id="Group-3">
            <mask id="mask-2" fill="white">
                <use xlink:href="#path-1"></use>
            </mask>
            <g id="Clip-2"></g>
            <path d="M127.111,156.24 L155.234,156.24 L155.234,0 L127.111,0 L127.111,156.24 Z M421.065,20.981 L421.065,50.444 L398.745,50.444 L398.745,74.772 L421.065,74.772 L421.065,116.511 C421.065,145.75 435.35,158.919 463.027,158.919 L463.027,158.919 C465.989,158.919 468.776,158.697 471.485,158.363 L471.485,158.363 L471.485,133.11 C470.601,133.16 469.73,133.251 468.83,133.251 L468.83,133.251 C455.215,133.251 449.188,128.117 449.188,113.386 L449.188,113.386 L449.188,74.772 L471.485,74.772 L471.485,50.444 L449.188,50.444 L449.188,20.981 L421.065,20.981 Z M284.955,103.342 C284.955,135.036 309.061,158.919 342.318,158.919 L342.318,158.919 C375.351,158.919 399.457,135.036 399.457,103.342 L399.457,103.342 C399.457,71.648 375.351,47.765 342.318,47.765 L342.318,47.765 C309.061,47.765 284.955,71.648 284.955,103.342 L284.955,103.342 Z M308.979,97.564 L355.265,97.564 L343.336,82.873 L343.344,82.866 C343.33,82.85 343.315,82.835 343.302,82.819 L343.302,82.819 C341.247,80.289 341.566,76.516 344.015,74.394 L344.015,74.394 C346.464,72.269 350.115,72.6 352.171,75.131 L352.171,75.131 C352.194,75.159 352.213,75.19 352.236,75.22 L352.236,75.22 L375.257,103.57 L352.232,131.916 C352.211,131.944 352.193,131.974 352.171,132.001 L352.171,132.001 C350.115,134.531 346.464,134.861 344.015,132.738 L344.015,132.738 C341.566,130.615 341.247,126.842 343.302,124.311 L343.302,124.311 C343.315,124.295 343.33,124.281 343.343,124.265 L343.343,124.265 L343.336,124.259 L355.296,109.529 L308.979,109.529 L308.979,97.564 Z M163.826,102.672 C163.826,133.92 186.146,156.464 214.939,156.464 L214.939,156.464 C229.893,156.464 242.839,150.437 248.865,139.277 L248.865,139.277 L249.758,139.277 L249.758,154.008 C249.758,173.204 239.714,183.694 219.849,183.694 L219.849,183.694 C204.449,183.694 194.851,177.444 193.512,166.061 L193.512,166.061 L165.835,166.061 C167.62,191.283 187.932,207.13 219.626,207.13 L219.626,207.13 C255.338,207.13 276.765,187.265 276.765,154.008 L276.765,154.008 L276.765,50.444 L250.874,50.444 L249.535,64.952 L248.642,64.952 C242.616,53.792 229.67,47.765 215.162,47.765 L215.162,47.765 C186.146,47.765 163.826,71.648 163.826,102.672 L163.826,102.672 Z M192.619,102.672 C192.619,85.932 204.002,73.21 221.189,73.21 L221.189,73.21 C238.598,73.21 249.758,85.932 249.758,102.672 L249.758,102.672 C249.758,119.636 238.598,132.135 221.189,132.135 L221.189,132.135 C204.002,132.135 192.619,119.636 192.619,102.672 L192.619,102.672 Z M0,103.342 C0,135.26 22.097,158.919 51.336,158.919 L51.336,158.919 C65.844,158.919 78.79,152.892 84.816,141.732 L84.816,141.732 L85.709,141.732 L87.048,156.24 L112.939,156.24 L112.939,50.444 L87.048,50.444 L85.709,64.952 L84.816,64.952 C78.79,53.792 65.844,47.765 51.336,47.765 L51.336,47.765 C22.097,47.765 0,71.424 0,103.342 L0,103.342 Z M28.793,103.342 C28.793,86.156 39.953,73.21 57.362,73.21 L57.362,73.21 C74.772,73.21 85.932,86.156 85.932,103.342 L85.932,103.342 C85.932,120.528 74.772,133.251 57.362,133.251 L57.362,133.251 C39.953,133.251 28.793,120.528 28.793,103.342 L28.793,103.342 Z" id="Fill-1" fill="url(#linearGradient-3)" mask="url(#mask-2)"></path>
        </g>
    </g>
</svg>